/* XPM */
static const char * a_xpm[] = {
"16 16 3 1",
"   c None",
".	c Blue",
"X	c Red",
"                ",
"                ",
"       ..       ",
"      ....      ",
"     ..  ..     ",
"     ..  ..     ",
"    ..    ..    ",
"    ..    ..    ",
"   ..........   ",
"   ..........   ",
"  ..        ..  ",
"  ..        ..  ",
" ..          .. ",
" ..          .. ",
".. XXX        ..",
".. XXX        .."
};

